<svg width="415" height="35" viewBox="0 0 415 35" fill="none" xmlns="http://www.w3.org/2000/svg">
<rect y="14.4536" width="6.71045" height="11.7046" rx="2" fill="#FFFF99"/>
<rect x="9.2914" y="10.8914" width="6.71045" height="15.2669" rx="2" fill="#FF6600"/>
<rect x="18.5828" y="6.31128" width="6.71045" height="19.8469" rx="2" fill="#C70100"/>
<rect x="27.8742" y="1.22235" width="6.71045" height="24.9359" rx="2" fill="#950A39"/>
<path d="M53.9391 26.4958H48.7042V6.16377H42V1.80691H60.6433V6.16377H53.9391V26.4958Z" fill="white"/>
<path d="M71.8225 7.26142C73.5675 7.26142 75.0704 7.59916 76.3313 8.27465C77.5922 8.93887 78.566 9.90706 79.2528 11.1792C79.9395 12.4514 80.2829 14.005 80.2829 15.84V18.3393H68.1073C68.1636 19.7916 68.5971 20.9343 69.4077 21.7674C70.2295 22.5892 71.3665 23.0001 72.8188 23.0001C74.0234 23.0001 75.1267 22.8763 76.1287 22.6286C77.1307 22.3809 78.1608 22.0094 79.219 21.5141V25.4994C78.2846 25.961 77.3052 26.2987 76.2807 26.5126C75.2674 26.7265 74.0347 26.8335 72.5824 26.8335C70.6911 26.8335 69.0136 26.4845 67.5501 25.7865C66.0978 25.0885 64.9551 24.0246 64.122 22.5948C63.3002 21.1651 62.8893 19.3638 62.8893 17.191C62.8893 14.9844 63.2608 13.1494 64.0038 11.6858C64.7581 10.211 65.8051 9.10774 67.1448 8.37597C68.4845 7.63294 70.0437 7.26142 71.8225 7.26142ZM71.8563 10.9259C70.8543 10.9259 70.0212 11.2468 69.357 11.8885C68.704 12.5302 68.3269 13.5378 68.2256 14.9112H75.4532C75.4419 14.1457 75.3012 13.4646 75.031 12.8679C74.7721 12.2712 74.3781 11.7984 73.8489 11.4494C73.3311 11.1004 72.6668 10.9259 71.8563 10.9259Z" fill="white"/>
<path d="M106.644 7.26142C108.783 7.26142 110.398 7.81307 111.49 8.91635C112.593 10.0084 113.145 11.7646 113.145 14.1851V26.4958H107.978V15.4685C107.978 14.1176 107.747 13.0987 107.285 12.412C106.824 11.7252 106.109 11.3819 105.141 11.3819C103.778 11.3819 102.81 11.8716 102.236 12.851C101.662 13.8192 101.375 15.2096 101.375 17.0221V26.4958H96.2243V15.4685C96.2243 14.5679 96.1229 13.8136 95.9203 13.2057C95.7176 12.5977 95.408 12.1418 94.9915 11.8378C94.575 11.5338 94.0402 11.3819 93.3872 11.3819C92.4303 11.3819 91.676 11.6239 91.1244 12.108C90.584 12.5808 90.1956 13.2845 89.9592 14.2189C89.734 15.142 89.6214 16.2735 89.6214 17.6132V26.4958H84.4709V7.61605H88.4056L89.0979 10.0309H89.385C89.7678 9.37793 90.2462 8.8488 90.8204 8.44352C91.4058 8.03823 92.0475 7.73989 92.7455 7.5485C93.4435 7.35712 94.1528 7.26142 94.8733 7.26142C96.258 7.26142 97.4289 7.48658 98.3858 7.9369C99.354 8.38723 100.097 9.08522 100.615 10.0309H101.071C101.634 9.06271 102.427 8.35908 103.452 7.92002C104.488 7.48096 105.552 7.26142 106.644 7.26142Z" fill="white"/>
<path d="M128.951 7.26142C131.079 7.26142 132.796 8.08889 134.102 9.74382C135.419 11.3987 136.078 13.8249 136.078 17.0221C136.078 19.1612 135.768 20.9624 135.149 22.426C134.53 23.8783 133.674 24.9759 132.582 25.7189C131.49 26.462 130.235 26.8335 128.816 26.8335C127.904 26.8335 127.122 26.7209 126.469 26.4958C125.816 26.2593 125.259 25.961 124.797 25.6007C124.336 25.2292 123.936 24.8352 123.598 24.4186H123.328C123.418 24.869 123.486 25.3305 123.531 25.8034C123.576 26.2762 123.598 26.7378 123.598 27.1881V34.8042H118.448V7.61605H122.636L123.362 10.0647H123.598C123.936 9.55806 124.347 9.09085 124.831 8.66305C125.315 8.23524 125.895 7.8975 126.57 7.64983C127.257 7.39089 128.051 7.26142 128.951 7.26142ZM127.296 11.3819C126.396 11.3819 125.681 11.5676 125.152 11.9391C124.623 12.3106 124.234 12.8679 123.987 13.6109C123.75 14.354 123.621 15.294 123.598 16.4311V16.9884C123.598 18.2042 123.711 19.2343 123.936 20.0787C124.172 20.923 124.561 21.5647 125.101 22.0038C125.653 22.4429 126.407 22.6624 127.364 22.6624C128.152 22.6624 128.799 22.4429 129.306 22.0038C129.813 21.5647 130.19 20.923 130.437 20.0787C130.696 19.2231 130.826 18.1817 130.826 16.9546C130.826 15.1083 130.539 13.7179 129.965 12.7835C129.39 11.8491 128.501 11.3819 127.296 11.3819Z" fill="white"/>
<path d="M148.118 7.26142C149.863 7.26142 151.366 7.59916 152.627 8.27465C153.888 8.93887 154.862 9.90706 155.548 11.1792C156.235 12.4514 156.579 14.005 156.579 15.84V18.3393H144.403C144.459 19.7916 144.893 20.9343 145.703 21.7674C146.525 22.5892 147.662 23.0001 149.114 23.0001C150.319 23.0001 151.422 22.8763 152.424 22.6286C153.426 22.3809 154.456 22.0094 155.515 21.5141V25.4994C154.58 25.961 153.601 26.2987 152.576 26.5126C151.563 26.7265 150.33 26.8335 148.878 26.8335C146.987 26.8335 145.309 26.4845 143.846 25.7865C142.393 25.0885 141.251 24.0246 140.418 22.5948C139.596 21.1651 139.185 19.3638 139.185 17.191C139.185 14.9844 139.556 13.1494 140.299 11.6858C141.054 10.211 142.101 9.10774 143.44 8.37597C144.78 7.63294 146.339 7.26142 148.118 7.26142ZM148.152 10.9259C147.15 10.9259 146.317 11.2468 145.653 11.8885C145 12.5302 144.622 13.5378 144.521 14.9112H151.749C151.738 14.1457 151.597 13.4646 151.327 12.8679C151.068 12.2712 150.674 11.7984 150.145 11.4494C149.627 11.1004 148.962 10.9259 148.152 10.9259Z" fill="white"/>
<path d="M171.304 7.26142C171.563 7.26142 171.861 7.27831 172.199 7.31208C172.548 7.3346 172.829 7.36837 173.043 7.41341L172.655 12.2431C172.486 12.1868 172.244 12.1474 171.929 12.1249C171.625 12.0911 171.36 12.0742 171.135 12.0742C170.471 12.0742 169.824 12.1587 169.193 12.3275C168.574 12.4964 168.017 12.7722 167.521 13.155C167.026 13.5265 166.632 14.0219 166.339 14.6411C166.058 15.249 165.917 15.9976 165.917 16.887V26.4958H160.766V7.61605H164.667L165.427 10.7908H165.681C166.052 10.1491 166.514 9.56369 167.065 9.03456C167.628 8.49418 168.264 8.06637 168.974 7.75115C169.694 7.42466 170.471 7.26142 171.304 7.26142Z" fill="white"/>
<path d="M184.206 7.22765C186.739 7.22765 188.681 7.77929 190.032 8.88258C191.383 9.98586 192.058 11.6633 192.058 13.9149V26.4958H188.461L187.465 23.9289H187.33C186.789 24.6044 186.238 25.156 185.675 25.5839C185.112 26.0117 184.465 26.3269 183.733 26.5295C183.001 26.7322 182.112 26.8335 181.065 26.8335C179.95 26.8335 178.948 26.6196 178.059 26.1918C177.181 25.764 176.488 25.111 175.982 24.2329C175.475 23.3435 175.222 22.2177 175.222 20.8555C175.222 18.8516 175.925 17.3768 177.333 16.4311C178.74 15.4742 180.851 14.945 183.665 14.8437L186.941 14.7424V13.9149C186.941 12.9242 186.682 12.1981 186.165 11.7365C185.647 11.2749 184.926 11.0441 184.003 11.0441C183.091 11.0441 182.196 11.1736 181.318 11.4325C180.44 11.6915 179.562 12.0179 178.684 12.412L176.978 8.93324C177.98 8.40411 179.1 7.98757 180.339 7.6836C181.588 7.37963 182.877 7.22765 184.206 7.22765ZM186.941 17.7483L184.949 17.8158C183.283 17.8609 182.123 18.1592 181.47 18.7108C180.828 19.2625 180.507 19.9886 180.507 20.8893C180.507 21.6773 180.738 22.2402 181.2 22.578C181.661 22.9044 182.264 23.0677 183.007 23.0677C184.11 23.0677 185.039 22.7412 185.793 22.0882C186.559 21.4353 186.941 20.5065 186.941 19.3019V17.7483Z" fill="white"/>
<path d="M205.331 22.7299C205.894 22.7299 206.44 22.6737 206.969 22.5611C207.51 22.4485 208.045 22.3078 208.574 22.1389V25.9723C208.022 26.2199 207.335 26.4226 206.513 26.5802C205.703 26.7491 204.813 26.8335 203.845 26.8335C202.719 26.8335 201.706 26.6534 200.806 26.2931C199.916 25.9216 199.213 25.2855 198.695 24.3849C198.188 23.473 197.935 22.2064 197.935 20.5853V11.4832H195.469V9.30475L198.306 7.58228L199.792 3.59694H203.085V7.61605H208.371V11.4832H203.085V20.5853C203.085 21.3058 203.288 21.8462 203.693 22.2064C204.11 22.5554 204.656 22.7299 205.331 22.7299Z" fill="white"/>
<path d="M229.733 7.61605V26.4958H225.782L225.089 24.0809H224.819C224.414 24.7226 223.907 25.2461 223.299 25.6514C222.691 26.0567 222.021 26.355 221.29 26.5464C220.558 26.7378 219.798 26.8335 219.01 26.8335C217.659 26.8335 216.482 26.5971 215.48 26.1242C214.478 25.6401 213.696 24.8915 213.133 23.8783C212.582 22.865 212.306 21.5479 212.306 19.9267V7.61605H217.456V18.6433C217.456 19.9942 217.698 21.0131 218.182 21.6998C218.666 22.3866 219.438 22.7299 220.496 22.7299C221.543 22.7299 222.365 22.4935 222.961 22.0207C223.558 21.5366 223.975 20.833 224.211 19.9098C224.459 18.9754 224.583 17.8383 224.583 16.4986V7.61605H229.733Z" fill="white"/>
<path d="M245.674 7.26142C245.933 7.26142 246.232 7.27831 246.569 7.31208C246.918 7.3346 247.2 7.36837 247.414 7.41341L247.025 12.2431C246.857 12.1868 246.615 12.1474 246.299 12.1249C245.995 12.0911 245.731 12.0742 245.506 12.0742C244.841 12.0742 244.194 12.1587 243.564 12.3275C242.944 12.4964 242.387 12.7722 241.892 13.155C241.396 13.5265 241.002 14.0219 240.71 14.6411C240.428 15.249 240.288 15.9976 240.288 16.887V26.4958H235.137V7.61605H239.038L239.798 10.7908H240.051C240.423 10.1491 240.884 9.56369 241.436 9.03456C241.999 8.49418 242.635 8.06637 243.344 7.75115C244.065 7.42466 244.841 7.26142 245.674 7.26142Z" fill="white"/>
<path d="M258.576 7.22765C261.109 7.22765 263.051 7.77929 264.402 8.88258C265.753 9.98586 266.429 11.6633 266.429 13.9149V26.4958H262.832L261.835 23.9289H261.7C261.16 24.6044 260.608 25.156 260.045 25.5839C259.482 26.0117 258.835 26.3269 258.103 26.5295C257.372 26.7322 256.482 26.8335 255.435 26.8335C254.321 26.8335 253.319 26.6196 252.429 26.1918C251.551 25.764 250.859 25.111 250.352 24.2329C249.846 23.3435 249.592 22.2177 249.592 20.8555C249.592 18.8516 250.296 17.3768 251.703 16.4311C253.11 15.4742 255.221 14.945 258.036 14.8437L261.312 14.7424V13.9149C261.312 12.9242 261.053 12.1981 260.535 11.7365C260.017 11.2749 259.297 11.0441 258.374 11.0441C257.462 11.0441 256.567 11.1736 255.688 11.4325C254.81 11.6915 253.932 12.0179 253.054 12.412L251.349 8.93324C252.35 8.40411 253.471 7.98757 254.709 7.6836C255.959 7.37963 257.248 7.22765 258.576 7.22765ZM261.312 17.7483L259.319 17.8158C257.653 17.8609 256.493 18.1592 255.84 18.7108C255.199 19.2625 254.878 19.9886 254.878 20.8893C254.878 21.6773 255.109 22.2402 255.57 22.578C256.032 22.9044 256.634 23.0677 257.377 23.0677C258.48 23.0677 259.409 22.7412 260.164 22.0882C260.929 21.4353 261.312 20.5065 261.312 19.3019V17.7483Z" fill="white"/>
<path d="M291.59 26.4958L285.646 7.12633H285.494C285.517 7.58791 285.55 8.2859 285.595 9.22032C285.652 10.1435 285.702 11.1286 285.747 12.1755C285.792 13.2225 285.815 14.1682 285.815 15.0126V26.4958H281.137V1.80691H288.264L294.106 20.6866H294.208L300.405 1.80691H307.532V26.4958H302.651V14.8099C302.651 14.0331 302.663 13.1381 302.685 12.1249C302.719 11.1117 302.758 10.1491 302.803 9.23721C302.848 8.31405 302.882 7.62168 302.905 7.1601H302.753L296.386 26.4958H291.59Z" fill="white"/>
<path d="M321.092 7.22765C323.625 7.22765 325.567 7.77929 326.918 8.88258C328.269 9.98586 328.944 11.6633 328.944 13.9149V26.4958H325.347L324.351 23.9289H324.216C323.676 24.6044 323.124 25.156 322.561 25.5839C321.998 26.0117 321.351 26.3269 320.619 26.5295C319.887 26.7322 318.998 26.8335 317.951 26.8335C316.836 26.8335 315.834 26.6196 314.945 26.1918C314.067 25.764 313.375 25.111 312.868 24.2329C312.361 23.3435 312.108 22.2177 312.108 20.8555C312.108 18.8516 312.812 17.3768 314.219 16.4311C315.626 15.4742 317.737 14.945 320.552 14.8437L323.828 14.7424V13.9149C323.828 12.9242 323.569 12.1981 323.051 11.7365C322.533 11.2749 321.812 11.0441 320.889 11.0441C319.977 11.0441 319.082 11.1736 318.204 11.4325C317.326 11.6915 316.448 12.0179 315.57 12.412L313.864 8.93324C314.866 8.40411 315.986 7.98757 317.225 7.6836C318.474 7.37963 319.764 7.22765 321.092 7.22765ZM323.828 17.7483L321.835 17.8158C320.169 17.8609 319.009 18.1592 318.356 18.7108C317.715 19.2625 317.394 19.9886 317.394 20.8893C317.394 21.6773 317.624 22.2402 318.086 22.578C318.548 22.9044 319.15 23.0677 319.893 23.0677C320.996 23.0677 321.925 22.7412 322.679 22.0882C323.445 21.4353 323.828 20.5065 323.828 19.3019V17.7483ZM327.729 0V0.354628C327.402 0.669852 326.974 1.05825 326.445 1.51983C325.916 1.98141 325.347 2.46551 324.74 2.97212C324.132 3.46747 323.535 3.94594 322.95 4.40752C322.364 4.85784 321.852 5.23498 321.413 5.53895H317.985V5.083C318.356 4.65519 318.784 4.14858 319.268 3.56316C319.764 2.96649 320.253 2.35293 320.737 1.72248C321.221 1.09203 321.627 0.517869 321.953 0H327.729Z" fill="white"/>
<path d="M338.131 16.8533L332.052 7.61605H337.895L341.559 13.6278L345.257 7.61605H351.1L344.953 16.8533L351.387 26.4958H345.527L341.559 20.028L337.574 26.4958H331.731L338.131 16.8533Z" fill="white"/>
<path d="M359.409 7.61605V26.4958H354.258V7.61605H359.409ZM356.842 0.219531C357.607 0.219531 358.266 0.39966 358.818 0.759916C359.369 1.10892 359.645 1.76751 359.645 2.7357C359.645 3.69263 359.369 4.35685 358.818 4.72837C358.266 5.08863 357.607 5.26875 356.842 5.26875C356.065 5.26875 355.401 5.08863 354.849 4.72837C354.309 4.35685 354.039 3.69263 354.039 2.7357C354.039 1.76751 354.309 1.10892 354.849 0.759916C355.401 0.39966 356.065 0.219531 356.842 0.219531Z" fill="white"/>
<path d="M387.002 7.26142C389.141 7.26142 390.757 7.81307 391.849 8.91635C392.952 10.0084 393.504 11.7646 393.504 14.1851V26.4958H388.336V15.4685C388.336 14.1176 388.105 13.0987 387.644 12.412C387.182 11.7252 386.467 11.3819 385.499 11.3819C384.137 11.3819 383.169 11.8716 382.595 12.851C382.02 13.8192 381.733 15.2096 381.733 17.0221V26.4958H376.583V15.4685C376.583 14.5679 376.481 13.8136 376.279 13.2057C376.076 12.5977 375.767 12.1418 375.35 11.8378C374.933 11.5338 374.399 11.3819 373.746 11.3819C372.789 11.3819 372.034 11.6239 371.483 12.108C370.942 12.5808 370.554 13.2845 370.318 14.2189C370.092 15.142 369.98 16.2735 369.98 17.6132V26.4958H364.829V7.61605H368.764L369.456 10.0309H369.743C370.126 9.37793 370.605 8.8488 371.179 8.44352C371.764 8.03823 372.406 7.73989 373.104 7.5485C373.802 7.35712 374.511 7.26142 375.232 7.26142C376.617 7.26142 377.787 7.48658 378.744 7.9369C379.712 8.38723 380.455 9.08522 380.973 10.0309H381.429C381.992 9.06271 382.786 8.35908 383.81 7.92002C384.846 7.48096 385.91 7.26142 387.002 7.26142Z" fill="white"/>
<path d="M406.54 7.22765C409.073 7.22765 411.015 7.77929 412.366 8.88258C413.717 9.98586 414.393 11.6633 414.393 13.9149V26.4958H410.796L409.8 23.9289H409.664C409.124 24.6044 408.572 25.156 408.009 25.5839C407.447 26.0117 406.799 26.3269 406.067 26.5295C405.336 26.7322 404.446 26.8335 403.399 26.8335C402.285 26.8335 401.283 26.6196 400.393 26.1918C399.515 25.764 398.823 25.111 398.316 24.2329C397.81 23.3435 397.556 22.2177 397.556 20.8555C397.556 18.8516 398.26 17.3768 399.667 16.4311C401.075 15.4742 403.185 14.945 406 14.8437L409.276 14.7424V13.9149C409.276 12.9242 409.017 12.1981 408.499 11.7365C407.981 11.2749 407.261 11.0441 406.338 11.0441C405.426 11.0441 404.531 11.1736 403.653 11.4325C402.775 11.6915 401.896 12.0179 401.018 12.412L399.313 8.93324C400.315 8.40411 401.435 7.98757 402.673 7.6836C403.923 7.37963 405.212 7.22765 406.54 7.22765ZM409.276 17.7483L407.283 17.8158C405.617 17.8609 404.458 18.1592 403.805 18.7108C403.163 19.2625 402.842 19.9886 402.842 20.8893C402.842 21.6773 403.073 22.2402 403.534 22.578C403.996 22.9044 404.598 23.0677 405.341 23.0677C406.445 23.0677 407.373 22.7412 408.128 22.0882C408.893 21.4353 409.276 20.5065 409.276 19.3019V17.7483Z" fill="white"/>
</svg>
